<!-- Generated by IcoMoon.io -->
<svg version="1.1" xmlns="http://www.w3.org/2000/svg" width="18" height="18" viewBox="0 0 18 18">
<title>mail2</title>
<path fill="#fff" d="M15 0h-12c-1.65 0-3 1.35-3 3v11.999c0 1.651 1.35 3 3 3h12c1.65 0 3-1.349 3-3v-11.999c0-1.65-1.35-3-3-3zM15 2.25c0.14 0 0.273 0.041 0.387 0.111l-6.387 5.281-6.387-5.28c0.114-0.070 0.247-0.112 0.387-0.112h12zM3 15.75c-0.034 0-0.067-0.003-0.1-0.007l3.966-5.501-0.514-0.514-4.102 4.102v-10.743l6.75 8.163 6.75-8.163v10.743l-4.102-4.102-0.514 0.514 3.966 5.501c-0.033 0.005-0.066 0.007-0.1 0.007h-12z"></path>
</svg>
