<?xml version="1.0" standalone="no"?>
<!DOCTYPE svg PUBLIC "-//W3C//DTD SVG 20010904//EN"
 "http://www.w3.org/TR/2001/REC-SVG-20010904/DTD/svg10.dtd">
<svg version="1.0" xmlns="http://www.w3.org/2000/svg"
 width="1429.000000pt" height="1429.000000pt" viewBox="0 0 1429.000000 1429.000000"
 preserveAspectRatio="xMidYMid meet">
<metadata>
Created by potrace 1.11, written by Peter Selinger 2001-2013
</metadata>
<g transform="translate(0.000000,1429.000000) scale(0.100000,-0.100000)"
fill="#000000" stroke="none">
<path d="M6808 14225 c-1 -2 -57 -6 -123 -10 -66 -3 -131 -8 -145 -10 -14 -2
-61 -6 -104 -10 -43 -4 -86 -8 -95 -10 -9 -1 -43 -6 -76 -9 -33 -4 -71 -9 -85
-11 -124 -18 -155 -23 -200 -30 -14 -2 -41 -7 -60 -10 -19 -3 -46 -8 -60 -10
-14 -3 -36 -7 -50 -10 -70 -13 -95 -18 -220 -46 -436 -97 -967 -273 -1323
-438 -49 -23 -90 -41 -93 -41 -2 0 -77 -36 -167 -81 -540 -269 -1051 -608
-1482 -983 -43 -38 -93 -81 -109 -95 -136 -119 -433 -418 -571 -575 -33 -38
-65 -74 -70 -80 -81 -85 -400 -502 -470 -615 -5 -9 -13 -18 -16 -21 -17 -14
-257 -401 -319 -515 -15 -27 -37 -68 -50 -90 -27 -48 -210 -413 -210 -419 0
-3 -16 -40 -36 -83 -36 -77 -172 -414 -180 -443 -2 -8 -28 -85 -57 -170 -61
-179 -82 -249 -137 -455 -37 -137 -121 -532 -135 -630 -3 -23 -7 -50 -9 -60
-2 -11 -7 -42 -10 -70 -4 -27 -9 -57 -11 -65 -2 -8 -6 -46 -10 -83 -3 -37 -8
-76 -10 -85 -1 -9 -6 -51 -10 -92 -3 -41 -8 -91 -10 -110 -27 -253 -27 -938 0
-1205 2 -22 7 -67 10 -100 3 -33 7 -76 10 -95 2 -19 7 -57 10 -85 9 -79 15
-126 25 -185 5 -30 12 -71 15 -90 5 -31 26 -152 39 -220 4 -21 30 -143 41
-190 23 -99 27 -118 50 -205 8 -33 17 -67 19 -75 22 -87 131 -442 146 -475 5
-11 20 -51 33 -90 26 -73 72 -195 88 -230 4 -11 28 -67 53 -125 121 -288 265
-568 466 -909 30 -51 201 -312 257 -391 99 -142 304 -404 417 -535 106 -121
119 -136 196 -218 175 -186 364 -368 535 -515 66 -57 134 -116 150 -130 17
-14 113 -88 215 -165 102 -76 192 -144 200 -151 8 -6 65 -44 125 -84 61 -40
115 -76 120 -80 10 -8 76 -49 107 -67 9 -5 60 -36 112 -67 282 -172 753 -402
1036 -507 19 -8 49 -19 65 -26 173 -73 769 -250 980 -291 11 -2 65 -13 120
-24 148 -30 147 -30 189 -35 21 -3 41 -7 45 -9 3 -2 29 -6 56 -10 28 -3 61 -8
75 -10 38 -7 89 -14 155 -21 33 -4 71 -9 85 -11 14 -2 57 -6 95 -9 39 -3 84
-8 100 -10 206 -27 970 -27 1205 0 19 2 71 6 114 10 43 4 86 8 95 10 9 1 43 6
76 9 33 4 71 9 85 11 14 2 45 7 70 10 25 4 83 13 130 21 47 8 96 17 110 19 42
7 84 15 110 21 14 3 39 8 55 11 107 17 520 125 705 185 112 36 366 125 395
138 11 5 70 29 130 54 219 88 499 221 694 328 31 17 80 44 109 60 172 95 446
271 642 412 116 83 348 261 360 275 3 3 27 24 54 46 27 21 60 48 72 60 12 11
53 47 90 80 225 197 471 449 694 709 14 16 30 34 35 40 67 75 271 342 346 451
30 44 57 82 60 85 23 21 262 404 339 545 18 33 42 75 52 93 85 152 250 501
319 674 22 57 46 117 54 133 7 17 34 91 60 165 26 74 50 142 53 150 7 20 5 15
57 185 44 144 112 392 122 445 2 14 13 63 23 110 10 47 21 98 24 114 3 16 10
52 15 80 20 99 39 215 47 287 3 30 7 56 9 59 2 3 6 35 10 70 3 36 8 76 10 90
2 14 7 57 10 95 3 39 8 86 10 105 26 220 26 991 0 1200 -2 19 -7 67 -10 107
-4 40 -8 82 -10 95 -1 13 -5 48 -9 78 -4 30 -9 66 -11 80 -2 14 -7 45 -10 70
-16 121 -54 330 -94 511 -130 599 -386 1287 -671 1804 -18 33 -44 80 -58 105
-222 405 -605 940 -907 1269 -105 116 -220 234 -325 336 -160 156 -181 175
-257 242 -38 32 -70 61 -73 64 -3 3 -59 50 -125 104 -320 263 -726 539 -1060
721 -49 27 -99 54 -110 60 -166 95 -587 284 -820 370 -66 25 -129 49 -140 54
-50 22 -490 155 -551 166 -15 3 -31 7 -36 10 -4 3 -16 7 -25 9 -10 2 -58 13
-108 25 -49 12 -99 23 -110 26 -11 2 -42 8 -70 14 -27 6 -61 12 -75 15 -14 3
-36 7 -50 10 -40 8 -72 14 -110 20 -20 3 -46 7 -59 10 -32 6 -297 43 -356 50
-120 13 -144 15 -220 21 -44 3 -107 8 -140 11 -71 5 -772 13 -777 8z m652
-309 c69 -4 143 -9 165 -11 22 -2 69 -7 105 -10 36 -4 76 -8 90 -10 44 -5 123
-15 165 -21 54 -7 206 -33 225 -39 8 -2 32 -6 52 -9 21 -3 59 -11 85 -17 27
-6 59 -13 73 -15 14 -3 79 -19 145 -35 792 -197 1568 -581 2210 -1094 50 -40
100 -81 111 -91 12 -11 43 -37 70 -59 84 -71 155 -137 309 -290 147 -147 183
-185 295 -315 30 -35 60 -68 65 -74 6 -6 26 -31 44 -56 19 -25 39 -49 45 -55
18 -16 98 -122 188 -250 346 -488 605 -1002 791 -1570 45 -137 111 -370 132
-464 17 -75 66 -315 70 -346 3 -22 10 -65 15 -95 14 -79 28 -185 35 -260 4
-36 8 -78 10 -95 27 -228 27 -814 1 -1095 -10 -103 -18 -172 -21 -188 -3 -16
-16 -111 -20 -142 -3 -24 -27 -174 -30 -190 -2 -8 -11 -51 -20 -95 -9 -44 -28
-127 -41 -185 -14 -58 -27 -114 -30 -125 -2 -11 -20 -74 -39 -140 -20 -66 -37
-127 -40 -135 -32 -122 -171 -484 -259 -676 -149 -325 -386 -737 -560 -970
-17 -23 -38 -52 -46 -64 -8 -12 -37 -50 -63 -84 -26 -33 -58 -74 -70 -90 -22
-29 -123 -152 -142 -172 -5 -7 -37 -43 -70 -80 -88 -101 -397 -409 -496 -495
-47 -41 -103 -89 -125 -108 -67 -58 -284 -224 -389 -298 -598 -420 -1266 -722
-1971 -894 -68 -16 -134 -32 -146 -35 -13 -2 -72 -14 -133 -25 -60 -12 -119
-23 -130 -25 -11 -2 -40 -7 -65 -9 -25 -3 -52 -8 -60 -10 -8 -3 -37 -7 -65
-10 -27 -3 -63 -7 -80 -9 -16 -3 -64 -7 -105 -11 -41 -4 -87 -8 -101 -11 -145
-23 -922 -22 -1009 1 -8 2 -50 6 -92 10 -42 3 -85 8 -96 10 -10 2 -45 6 -78 9
-32 4 -66 8 -74 11 -8 2 -35 6 -60 9 -25 3 -56 8 -70 11 -43 8 -133 24 -175
31 -22 3 -43 8 -46 10 -3 2 -19 5 -35 8 -67 13 -289 70 -429 111 -131 39 -210
66 -430 145 -203 74 -620 273 -800 382 -16 10 -37 21 -45 25 -19 9 -175 105
-260 160 -205 134 -466 334 -665 509 -173 152 -489 476 -610 625 -11 14 -41
49 -66 79 -25 30 -90 116 -145 190 -520 700 -874 1495 -1044 2345 -12 61 -23
119 -25 130 -1 11 -6 43 -10 70 -4 28 -9 59 -11 70 -2 11 -7 40 -10 65 -3 25
-7 56 -10 70 -2 14 -6 57 -10 95 -3 39 -7 81 -10 95 -25 159 -25 934 0 1090 3
14 7 57 10 95 4 39 8 81 10 95 3 14 7 41 10 60 2 19 8 58 12 85 3 28 8 59 10
70 2 11 8 45 14 75 6 30 12 66 15 80 3 14 9 48 15 75 13 71 15 77 46 205 15
63 29 117 29 120 3 12 29 102 57 195 205 682 554 1347 1007 1920 52 66 100
125 105 131 6 6 22 24 35 40 84 100 174 197 306 329 168 168 207 205 350 325
55 47 102 87 105 90 18 21 282 215 410 302 587 399 1270 698 1950 853 117 27
296 62 385 75 39 5 79 12 90 14 11 2 49 7 85 11 36 4 67 8 70 10 3 2 46 6 95
10 50 4 104 9 120 11 17 2 95 6 175 10 80 3 146 7 147 8 5 4 359 -2 473 -8z"/>
<path d="M6948 13665 c-2 -2 -50 -6 -108 -9 -102 -6 -134 -9 -230 -22 -99 -13
-118 -15 -200 -30 -47 -9 -96 -18 -110 -20 -14 -3 -33 -7 -42 -10 -10 -3 -30
-7 -45 -10 -16 -3 -46 -10 -68 -16 -22 -5 -47 -11 -56 -13 -25 -5 -157 -44
-239 -72 -637 -211 -1184 -549 -1648 -1018 -171 -173 -238 -250 -382 -435
-156 -202 -347 -527 -465 -790 -25 -58 -51 -114 -56 -125 -58 -128 -188 -547
-213 -685 -2 -14 -11 -59 -19 -100 -9 -41 -18 -91 -21 -110 -5 -38 -24 -177
-31 -226 -26 -188 -26 -812 0 -914 2 -8 6 -40 10 -71 3 -31 7 -65 9 -75 2 -11
7 -41 10 -67 4 -27 10 -59 12 -70 3 -12 9 -47 15 -77 79 -424 269 -911 512
-1320 80 -134 301 -449 336 -480 4 -3 31 -34 61 -70 170 -202 362 -387 589
-568 399 -318 891 -575 1376 -717 50 -15 101 -30 115 -35 28 -10 261 -61 360
-79 74 -14 101 -18 182 -26 32 -3 68 -8 80 -11 135 -26 793 -26 928 1 13 3 54
7 89 11 36 3 68 7 71 9 3 2 26 6 50 10 25 4 88 16 140 27 52 10 106 22 120 24
132 26 419 116 602 190 164 66 405 182 531 256 185 108 510 337 613 433 6 5
44 39 85 75 413 365 769 850 1007 1370 195 426 325 930 359 1391 15 195 8 641
-12 779 -2 14 -6 52 -10 85 -4 32 -9 68 -11 79 -2 11 -6 38 -9 61 -3 22 -10
60 -15 85 -5 25 -12 56 -14 70 -10 52 -17 85 -32 144 -8 34 -20 79 -25 101
-14 57 -59 206 -69 230 -4 11 -29 79 -55 150 -162 443 -427 889 -749 1262 -87
100 -349 361 -431 429 -33 27 -62 52 -65 55 -3 3 -61 49 -130 101 -371 284
-796 505 -1245 650 -94 30 -342 97 -385 103 -14 2 -61 11 -105 20 -100 20
-249 42 -340 50 -38 4 -88 9 -110 11 -46 6 -512 13 -517 9z m-1834 -1432 c27
-26 60 -63 74 -82 15 -20 30 -38 33 -41 13 -11 67 -138 78 -183 11 -47 7 -91
-12 -114 -13 -17 -47 -16 -90 2 -60 25 -75 20 -88 -27 -12 -45 -14 -168 -5
-234 12 -80 15 -154 7 -154 -21 0 -52 52 -61 101 -5 30 -22 91 -38 136 -27 73
-41 126 -57 218 -7 44 -8 205 0 251 14 86 28 138 44 155 27 32 63 23 115 -28z
m3908 -241 c11 -11 20 -41 24 -85 l7 -68 -49 -47 c-33 -32 -90 -68 -174 -110
-69 -34 -132 -62 -140 -62 -18 1 -70 45 -70 60 0 6 21 39 48 74 26 35 56 76
67 92 108 150 146 179 225 169 25 -3 53 -13 62 -23z m-3480 -13 c25 -13 60
-64 104 -148 l38 -73 -27 -24 c-35 -30 -58 -30 -108 -2 -59 33 -111 115 -117
183 -6 70 8 89 57 80 20 -4 43 -11 53 -16z m3855 -244 c33 -37 47 -99 46 -205
-2 -330 -233 -624 -528 -673 -110 -19 -161 -14 -234 18 -66 30 -91 61 -84 104
7 45 26 59 143 106 25 10 68 28 95 40 28 12 104 44 170 71 151 61 156 66 103
116 -55 52 -96 66 -194 69 -27 1 -58 8 -69 16 -19 12 -13 19 93 122 131 126
231 197 321 228 75 25 108 22 138 -12z m-1312 -189 c53 -14 120 -40 127 -50
19 -28 -24 -50 -122 -61 -30 -3 -77 -9 -105 -13 -46 -7 -67 -5 -149 13 -92 20
-138 90 -75 113 26 10 283 8 324 -2z m-1219 -87 c8 -6 14 -17 14 -24 0 -19
-120 -144 -201 -211 -108 -88 -469 -324 -497 -324 -48 0 -70 25 -87 104 -13
62 -68 107 -145 121 -45 8 -93 45 -114 88 -21 45 -20 70 2 90 14 13 441 167
463 167 20 0 15 -38 -11 -89 -53 -105 -46 -132 33 -136 55 -3 70 5 147 84 36
36 79 75 95 87 29 20 100 49 140 57 37 7 147 -2 161 -14z m1286 -268 c69 -72
60 -119 -23 -127 -48 -5 -65 5 -111 66 -28 37 -41 79 -29 98 3 6 18 15 31 20
35 13 86 -9 132 -57z m-990 -83 c34 -28 28 -46 -42 -124 -39 -42 -71 -83 -71
-93 -4 -43 1 -57 26 -76 15 -11 43 -35 62 -53 31 -28 35 -37 30 -67 -7 -45
-42 -89 -87 -109 -74 -34 -93 -29 -205 44 -122 79 -177 97 -236 74 -41 -17
-56 -42 -91 -147 -30 -94 -77 -151 -153 -187 -110 -53 -178 -1 -176 134 1 70
27 133 72 177 49 48 248 194 336 245 143 85 244 129 387 170 94 26 126 29 148
12z m738 -170 c52 -25 145 -69 205 -98 61 -28 144 -68 185 -87 324 -153 341
-171 345 -358 2 -107 -14 -208 -54 -330 -30 -91 -86 -150 -195 -205 -95 -48
-161 -59 -177 -29 -11 22 10 88 61 193 34 71 32 113 -9 171 -16 22 -39 56 -52
75 -97 142 -187 233 -270 276 -27 13 -78 31 -115 40 -117 27 -126 41 -125 204
2 231 11 237 201 148z m-2130 36 c47 -19 74 -63 85 -135 4 -24 11 -66 17 -94
5 -27 11 -57 12 -65 5 -28 -16 -70 -44 -86 -33 -20 -64 -70 -66 -104 -1 -42
34 -98 89 -141 102 -80 100 -78 85 -101 -23 -34 -85 -47 -147 -31 -29 7 -65
21 -80 32 -89 62 -213 111 -283 111 -54 0 -88 22 -88 57 0 36 214 515 250 558
17 20 118 20 170 -1z m3409 -477 c50 -23 112 -81 135 -124 22 -44 28 -118 13
-156 -15 -36 -79 -97 -127 -122 -43 -22 -89 -16 -111 15 -16 21 -67 197 -83
280 -2 14 -7 33 -11 43 -13 31 4 68 37 81 38 16 89 10 147 -17z m-1870 -89
c13 -35 -3 -54 -73 -88 -69 -34 -138 -96 -261 -232 -90 -101 -113 -109 -163
-58 -35 35 -65 115 -58 156 3 16 8 52 12 79 16 121 20 128 52 120 110 -29 200
-24 367 20 114 29 114 29 124 3z m440 -60 c158 -75 264 -329 197 -470 -35 -73
-110 -119 -184 -112 -89 9 -98 16 -83 70 17 62 13 136 -14 225 -69 232 -77
261 -71 284 10 39 75 41 155 3z m-2317 -217 c37 -26 58 -70 53 -111 -1 -14 -3
-30 -4 -37 0 -6 -18 -29 -38 -51 -82 -87 -191 -95 -295 -23 -87 61 -76 136 29
197 99 59 192 68 255 25z m1926 -35 c52 -34 118 -104 141 -151 31 -64 13 -110
-66 -167 -63 -46 -78 -38 -163 92 -101 156 -110 202 -48 240 38 23 86 18 136
-14z m2182 -171 c14 -4 31 -7 38 -7 8 -1 46 -17 85 -37 107 -55 150 -120 122
-188 -18 -42 -68 -58 -175 -57 -108 0 -138 15 -300 149 l-121 100 33 14 c79
33 238 46 318 26z m-637 -71 c49 -49 71 -110 70 -198 0 -158 -55 -255 -174
-310 -83 -39 -86 -29 -43 134 20 74 37 142 39 150 28 109 70 250 75 250 4 0
19 -12 33 -26z m-3147 -78 c19 -22 22 -35 19 -108 -2 -89 -26 -206 -56 -275
-31 -72 -96 -77 -148 -11 -26 32 -59 161 -55 211 11 115 52 189 117 209 42 12
101 0 123 -26z m486 5 c24 -10 83 -50 131 -89 49 -38 114 -82 145 -97 83 -40
92 -50 81 -88 -17 -59 -50 -76 -159 -79 -88 -2 -160 27 -239 98 -87 78 -138
216 -95 258 21 22 83 20 136 -3z m-1216 -141 c20 -13 34 -30 34 -41 0 -41
-144 -107 -241 -111 -53 -2 -71 19 -64 76 5 48 39 85 86 96 57 13 147 3 185
-20z m3490 -38 c12 -10 26 -27 32 -39 24 -43 -79 -157 -167 -184 -20 -6 -88
-13 -152 -16 -132 -6 -173 6 -186 55 -10 39 -10 45 -1 65 7 14 19 17 61 14 66
-5 119 11 237 72 102 53 143 61 176 33z m-1348 -22 c19 -12 58 -60 96 -119 97
-149 112 -154 205 -64 71 70 89 79 108 61 8 -8 16 -28 18 -44 10 -78 41 -107
125 -117 25 -3 46 -6 46 -6 5 -2 -59 -178 -67 -187 -16 -20 -22 -109 -10 -147
8 -23 34 -55 71 -87 61 -53 80 -86 73 -133 -10 -76 -102 -185 -212 -251 -34
-21 -67 -39 -74 -40 -7 -2 -19 -6 -27 -9 -45 -19 -131 -45 -143 -43 -26 4 -47
28 -47 54 0 42 -40 112 -79 137 -20 13 -65 32 -101 41 -128 32 -176 77 -207
196 -21 82 -13 116 36 140 62 31 66 63 19 148 -36 66 -33 90 12 90 34 0 99 30
120 55 27 32 20 95 -21 195 -42 103 -45 120 -27 138 18 18 49 15 86 -8z m2226
-25 c89 -23 143 -68 335 -279 l26 -28 -72 6 c-140 11 -259 73 -383 199 -68 68
-84 100 -57 110 25 11 94 7 151 -8z m-4152 -167 c60 -32 157 -122 170 -159 4
-11 3 -29 -2 -40 -14 -26 -15 -97 -1 -132 10 -27 104 -158 143 -201 10 -11 18
-23 18 -28 0 -4 14 -24 32 -44 25 -28 29 -39 21 -52 -8 -14 -28 -17 -109 -17
-97 0 -100 1 -161 38 -54 33 -173 83 -173 72 0 -2 -15 1 -32 6 -51 15 -219 12
-328 -6 -13 -3 -34 2 -46 10 -20 13 -21 19 -13 62 26 143 109 292 245 442 91
100 126 107 236 49z m1043 -92 c141 -43 247 -84 257 -99 12 -20 -14 -49 -68
-74 -120 -55 -227 -38 -317 51 -45 45 -94 131 -109 192 -5 21 -4 21 56 -6 34
-16 115 -44 181 -64z m3023 -113 c29 -20 82 -67 117 -105 72 -78 173 -221 180
-256 6 -31 -52 -85 -139 -128 -70 -34 -90 -39 -425 -100 -113 -20 -230 -60
-297 -100 -31 -18 -54 -27 -54 -20 0 19 66 152 102 204 61 90 391 527 407 539
21 16 45 8 109 -34z m-857 -59 c25 -31 -43 -124 -121 -165 -63 -33 -221 -34
-292 -2 -75 34 -142 111 -131 151 6 26 31 31 163 28 58 -1 120 1 138 4 65 10
230 0 243 -16z m-2051 -225 c51 -15 76 -29 118 -69 45 -43 51 -53 42 -70 -12
-23 -60 -50 -87 -50 -22 1 -31 7 -137 105 -47 43 -86 84 -86 91 0 27 41 25
150 -7z m2167 -122 c21 -21 22 -98 1 -137 -38 -72 -190 -178 -280 -195 -87
-17 -97 -16 -113 8 -17 26 -14 94 6 156 33 101 113 165 224 179 88 12 143 8
162 -11z m-2482 -56 c73 -34 135 -86 135 -113 0 -13 -14 -26 -47 -41 -62 -27
-135 -27 -189 1 -44 23 -98 78 -109 112 -10 30 2 68 23 73 39 11 130 -5 187
-32z m-1035 -165 c30 -3 70 -10 88 -15 18 -5 33 -9 35 -9 8 4 95 -30 164 -64
94 -46 125 -71 116 -94 -8 -22 -101 -62 -160 -69 -26 -4 -57 -8 -68 -9 -33 -5
-166 13 -220 30 -100 32 -202 101 -231 155 -11 21 -11 29 -1 37 30 23 63 34
125 39 37 3 69 7 70 9 2 1 9 1 15 -1 7 -2 37 -6 67 -9z m1875 -71 c61 -27 125
-86 125 -115 0 -14 -10 -25 -32 -35 -37 -15 -54 -8 -196 87 -79 54 -90 78 -37
89 41 8 81 1 140 -26z m2491 -66 c24 -26 12 -44 -38 -58 -94 -26 -114 -32
-128 -35 -75 -19 -383 -103 -483 -132 -15 -5 -16 -2 -5 23 6 15 26 43 42 61
64 69 289 153 450 168 39 3 72 8 74 9 8 7 74 -20 88 -36z m-1423 -43 c-3 -17
-11 -40 -18 -52 -36 -57 -228 -147 -343 -161 -41 -5 -50 -3 -56 13 -5 14 8 32
57 78 66 62 156 114 277 160 58 22 66 23 77 9 7 -9 10 -29 6 -47z m-1328 -124
c142 -135 297 -230 475 -292 36 -13 75 -33 87 -46 27 -29 21 -54 -34 -144 -22
-36 -55 -103 -73 -150 -42 -105 -76 -158 -128 -194 -64 -44 -135 -61 -250 -60
-114 1 -127 7 -138 62 -6 30 -1 37 84 122 93 92 110 122 97 178 -7 33 -47 59
-101 67 -176 26 -347 172 -330 281 13 81 73 161 148 198 77 38 104 35 163 -22z
m1683 -95 c28 -26 28 -53 -3 -123 -25 -56 -65 -104 -87 -104 -18 0 -48 -31
-48 -50 0 -9 11 -31 25 -50 14 -19 25 -39 25 -45 0 -7 -30 -28 -67 -47 -69
-36 -98 -70 -84 -97 5 -8 26 -26 47 -40 20 -14 39 -31 41 -37 10 -30 -239 -61
-347 -42 -83 14 -185 67 -261 135 -72 65 -89 129 -45 176 32 35 67 48 237 92
247 64 330 104 390 191 50 74 123 91 177 41z m927 5 c41 -14 51 -22 53 -43 3
-24 -4 -30 -75 -65 l-78 -39 -204 -3 -205 -4 45 38 c41 34 141 96 164 101 5 1
30 9 55 17 61 20 183 19 245 -2z m-4071 -93 c21 -6 46 -12 55 -14 9 -2 63 -15
121 -30 123 -32 114 -30 163 -40 44 -9 43 -13 -10 -26 -151 -38 -311 0 -362
86 -23 39 -22 39 33 24z m3876 -233 c91 -31 109 -50 79 -82 -48 -51 -209 -99
-275 -82 -35 9 -53 41 -55 98 -3 64 1 77 24 87 36 17 146 6 227 -21z m-340
-335 c25 -12 56 -31 70 -41 l25 -19 -58 -25 c-59 -27 -84 -31 -103 -18 -14 9
-49 78 -57 113 -6 25 -6 26 36 19 23 -3 62 -16 87 -29z m-1078 -165 c63 -11
146 -42 180 -69 10 -8 24 -27 32 -42 13 -26 13 -32 -2 -58 -14 -24 -89 -96
-151 -145 -167 -132 -294 -183 -445 -178 -98 3 -170 32 -241 97 -70 64 -70 72
-13 151 101 139 209 223 313 246 42 9 270 7 327 -2z"/>
</g>
</svg>
